<svg width="29" height="29" viewBox="0 0 29 29" fill="none" xmlns="http://www.w3.org/2000/svg">
<path d="M14.5 26.1C8.1055 26.1 2.9 20.8945 2.9 14.5C2.9 8.1055 8.1055 2.9 14.5 2.9C20.8945 2.9 26.1 8.1055 26.1 14.5C26.1 20.8945 20.8945 26.1 14.5 26.1ZM14.5 0C6.4815 0 0 6.4815 0 14.5C0 22.5185 6.4815 29 14.5 29C22.5185 29 29 22.5185 29 14.5C29 6.4815 22.5185 0 14.5 0ZM18.2555 8.7L14.5 12.4555L10.7445 8.7L8.7 10.7445L12.4555 14.5L8.7 18.2555L10.7445 20.3L14.5 16.5445L18.2555 20.3L20.3 18.2555L16.5445 14.5L20.3 10.7445L18.2555 8.7Z" fill="#A20E26"/>
</svg>
